<?xml version="1.0" standalone="no"?>
<!DOCTYPE svg PUBLIC "-//W3C//DTD SVG 20010904//EN"
 "http://www.w3.org/TR/2001/REC-SVG-20010904/DTD/svg10.dtd">
<svg version="1.0" xmlns="http://www.w3.org/2000/svg"
 width="476.000000pt" height="248.000000pt" viewBox="0 0 476.000000 248.000000"
 preserveAspectRatio="xMidYMid meet">

<g transform="translate(0.000000,248.000000) scale(0.100000,-0.100000)"
fill="#000000" stroke="none">
<path d="M4318 2088 c-19 -6 -28 -17 -28 -32 0 -21 -12 -24 -257 -69 -775
-140 -724 -132 -735 -114 -5 9 -20 17 -33 17 -19 0 -25 -5 -25 -23 0 -22 -7
-25 -97 -40 -126 -22 -646 -120 -830 -156 l-143 -28 0 28 c0 26 -4 29 -31 29
-27 0 -30 -3 -27 -27 2 -23 7 -28 28 -25 44 5 0 -15 -50 -22 -64 -9 -345 -64
-888 -172 -401 -79 -483 -93 -530 -87 -50 5 -55 4 -45 -9 11 -12 -4 -17 -112
-36 -68 -12 -155 -29 -193 -37 l-68 -16 0 -37 c0 -37 -19 -302 -31 -420 -7
-72 -23 -87 -56 -53 -19 19 -20 23 -7 31 8 5 11 10 5 10 -5 0 -17 -5 -25 -10
-13 -8 -12 -12 8 -25 22 -16 32 -42 10 -29 -6 4 -31 7 -55 5 -25 -1 -43 3 -43
9 0 5 -5 10 -11 10 -6 0 -9 -7 -5 -15 4 -10 -1 -15 -14 -15 -18 0 -19 3 -8 20
7 11 19 21 26 22 11 2 9 8 -7 22 -21 19 -21 19 -21 -2 0 -11 -4 -23 -10 -27
-5 -3 -9 -156 -10 -385 l0 -380 2380 0 2380 0 0 900 0 900 -22 -5 c-13 -3 -68
-12 -123 -20 -96 -14 -102 -13 -141 6 l-42 20 -16 97 c-39 224 -34 214 -98
190z m-1022 -415 c8 -112 9 -191 2 -198 -2 -2 -54 -11 -114 -19 -60 -8 -154
-22 -209 -30 -56 -9 -124 -17 -153 -18 -29 -1 -52 -6 -52 -10 0 -5 -9 -3 -20
4 -16 10 -20 24 -20 65 0 45 3 53 19 53 20 0 31 -18 31 -51 0 -12 7 -19 18
-19 14 0 19 8 19 30 0 19 -5 29 -13 28 -7 -2 -14 2 -15 7 -2 9 19 14 141 31
25 3 48 8 52 11 8 4 3 112 -5 120 -2 2 -38 -3 -78 -11 -41 -8 -119 -22 -174
-31 -159 -25 -145 -17 -145 -81 l0 -57 59 7 60 7 -9 -32 c-12 -42 -38 -70 -64
-68 -12 1 -32 1 -46 0 -22 -3 -21 -4 10 -13 31 -9 33 -11 15 -19 -11 -5 -216
-36 -455 -69 -239 -34 -454 -64 -478 -67 -36 -5 -43 -3 -40 10 2 9 -1 17 -7
19 -5 2 -11 -12 -13 -31 -2 -23 -6 -30 -12 -21 -6 10 -51 7 -241 -20 -128 -18
-263 -34 -299 -36 -37 -2 -79 -8 -94 -14 -35 -13 -86 -13 -86 0 0 6 -4 10 -10
10 -5 0 -10 -7 -10 -15 0 -8 -5 -15 -12 -15 -6 0 -77 -9 -156 -21 -157 -22
-168 -20 -152 30 5 14 11 43 15 65 3 21 9 35 13 31 7 -7 8 -12 11 -39 1 -12 8
-12 36 -3 22 7 34 15 31 23 -7 18 12 28 27 16 7 -6 21 -6 34 -1 21 8 24 20 13
59 -1 3 -6 -6 -11 -20 -9 -22 -12 -23 -22 -9 -7 9 -17 14 -24 12 -6 -2 -14 0
-17 5 -3 5 7 8 22 6 14 -1 31 1 37 5 5 5 27 11 47 14 l38 6 -27 -25 c-14 -13
-21 -24 -16 -24 6 0 10 -10 10 -22 0 -13 5 -34 11 -48 11 -25 11 -25 18 -3 5
17 16 24 53 29 134 19 125 15 132 63 6 46 -4 58 -41 48 -11 -3 -20 -2 -20 3 0
11 26 20 55 20 13 0 50 7 81 15 31 8 61 12 65 9 5 -3 9 -1 9 4 0 6 28 13 63
17 34 4 72 11 85 16 15 6 22 5 22 -4 0 -8 4 -7 10 3 5 8 24 16 42 16 47 2 108
13 173 29 31 8 81 15 110 15 30 0 55 4 55 9 0 15 118 33 168 24 l47 -7 -35 -6
-35 -5 0 -55 c0 -31 5 -54 10 -53 31 4 83 12 193 28 99 15 122 22 122 35 0 15
11 15 132 -2 73 -10 140 -17 148 -15 8 2 -23 9 -70 16 -217 31 -210 29 -210
66 0 33 -1 34 -37 29 -21 -3 -51 -10 -67 -15 -48 -15 -159 -4 -130 13 8 5 175
31 202 31 6 0 12 4 12 9 0 4 15 8 34 8 19 0 46 4 59 9 14 6 52 13 86 16 33 3
75 10 92 15 18 5 35 7 40 5 4 -3 11 0 14 6 4 5 13 8 20 5 7 -2 30 -1 51 4 22
5 55 11 74 14 19 3 55 10 80 15 31 6 49 6 58 -2 10 -8 12 -7 10 3 -3 14 6 16
357 74 54 9 101 19 104 21 2 3 21 5 42 5 l37 0 8 -97z m-338 -47 c-7 -8 -15
-12 -17 -11 -5 6 10 25 20 25 5 0 4 -6 -3 -14z m-40 -10 c-7 -8 -15 -12 -17
-11 -5 6 10 25 20 25 5 0 4 -6 -3 -14z m-143 -23 c-2 -10 -4 -22 -5 -28 0 -5
-5 -2 -11 9 -9 14 -8 20 2 27 18 11 18 12 14 -8z m-55 -123 c0 -22 -4 -40 -10
-40 -11 0 -13 39 -4 64 10 26 14 19 14 -24z m555 -90 c1 -8 5 -76 9 -150 4
-74 10 -138 12 -142 9 -15 -10 -8 -108 34 -54 23 -98 48 -98 55 0 17 -60 17
-61 1 0 -9 -2 -10 -5 -1 -4 8 -15 9 -37 2 -18 -5 -33 -9 -34 -9 -2 0 -3 15 -3
33 1 26 2 29 11 15 10 -19 51 -22 99 -9 22 6 25 13 28 60 l3 53 -28 -6 c-15
-3 -54 -8 -86 -12 l-58 -6 7 -68 6 -67 -62 -6 c-35 -4 -76 -7 -93 -7 l-30 0 6
56 c4 39 12 62 26 76 12 10 21 25 21 33 0 18 43 29 205 50 72 9 150 20 175 25
61 11 93 8 95 -10z m-2375 -54 c0 -2 -11 -6 -25 -8 -13 -3 -22 -1 -19 3 5 9
44 13 44 5z m1801 -92 c-2 -52 -8 -92 -15 -96 -6 -4 -26 -8 -43 -8 l-33 0 0
70 c0 51 -3 68 -12 65 -7 -2 -40 -7 -73 -10 -33 -3 -76 -8 -95 -10 -19 -3 -54
-8 -78 -11 -31 -4 -41 -9 -34 -17 5 -7 9 -57 8 -112 -1 -55 1 -107 6 -116 6
-13 0 -19 -30 -26 -71 -17 -71 -17 -68 128 1 85 -2 129 -9 129 -25 0 -237 -29
-241 -32 -2 -3 -4 -58 -5 -124 -1 -126 -4 -134 -51 -134 -31 0 -31 -1 -28 173
l1 79 -28 -5 c-15 -3 -55 -9 -88 -12 -33 -3 -73 -8 -90 -11 l-30 -5 0 -117 c0
-114 -1 -117 -23 -120 l-22 -3 6 128 c4 73 11 133 18 140 9 10 332 57 866 124
47 6 105 14 130 18 25 5 50 8 55 6 6 -1 9 -37 6 -91z m-2061 30 c0 -7 -27 -34
-35 -34 -3 0 -3 5 0 10 3 6 1 10 -4 10 -6 0 -11 5 -11 10 0 6 11 10 25 10 14
0 25 -3 25 -6z m988 -406 c15 18 43 21 282 37 146 9 308 20 360 24 52 4 98 6
103 4 4 -2 7 -15 7 -29 0 -17 -5 -24 -20 -24 -11 0 -20 -6 -20 -14 0 -15 18
-20 103 -32 26 -3 46 -8 45 -10 -2 -1 -91 -8 -198 -14 -276 -15 -256 -10 -252
-70 4 -51 5 -50 -40 -54 -9 -1 -12 12 -10 42 4 48 -13 62 -54 44 -19 -9 -24
-9 -24 3 0 10 -10 13 -42 10 -24 -3 -92 -7 -153 -9 l-110 -4 -1 -41 c-1 -30 2
-41 13 -41 8 0 12 4 9 8 -13 21 20 30 152 38 139 9 142 9 142 -12 0 -11 6 -26
13 -34 10 -12 9 -12 -4 -2 -12 9 -28 5 -82 -24 -37 -19 -69 -44 -72 -55 -6
-19 -15 -20 -185 -19 -127 1 -180 5 -183 13 -3 9 -8 9 -18 0 -17 -17 -49 -17
-49 0 0 8 -3 7 -10 -3 -8 -12 -14 -13 -42 -2 -18 6 -34 8 -37 3 -9 -14 -71
-21 -71 -8 0 7 -5 6 -10 -3 -8 -13 -10 -13 -10 2 0 9 5 20 10 23 6 3 10 11 10
17 0 6 -9 3 -20 -7 -11 -10 -20 -24 -20 -32 0 -8 -4 -11 -10 -8 -5 3 -40 6
-77 5 -38 0 -105 -1 -150 -1 -45 -1 -91 2 -103 6 -17 5 -20 4 -15 -6 6 -9 2
-10 -16 -5 -57 17 -65 18 -49 7 13 -9 13 -11 -2 -11 -10 0 -18 5 -18 10 0 16
-22 12 -36 -7 -17 -23 -18 -54 -1 -52 28 3 37 -2 37 -22 0 -12 -4 -17 -11 -13
-8 5 -8 1 0 -14 15 -29 14 -32 -11 -32 -17 0 -19 3 -10 9 11 7 9 13 -10 31
-12 13 -16 19 -8 15 12 -6 13 -5 3 6 -7 7 -13 28 -13 46 0 18 -3 33 -7 33 -16
0 -119 -42 -133 -55 -16 -13 -130 -17 -130 -4 0 7 35 24 97 48 26 10 31 18 30
39 -4 52 14 60 146 61 66 1 123 3 126 5 5 4 69 7 341 21 47 2 157 7 245 10
211 8 235 11 235 37 0 18 -5 19 -77 13 -43 -3 -177 -10 -298 -15 -335 -15
-668 -30 -691 -30 -20 0 -21 4 -14 34 4 18 10 38 13 43 4 6 64 13 134 17 71 4
148 9 173 12 51 5 727 54 750 54 12 0 15 23 18 135 2 121 1 135 -14 135 -9 0
-56 -5 -104 -12 l-88 -11 -2 -71 c-2 -39 -2 -86 -1 -105 2 -44 -10 -57 -57
-59 l-39 -3 6 38 c10 61 7 188 -4 187 -78 -10 -165 -13 -165 -6 0 15 48 29
140 41 47 7 141 20 210 29 l125 17 3 -173 c2 -166 3 -173 20 -154z m-658 227
c0 -8 -12 -17 -27 -21 -16 -3 -32 -7 -38 -9 -6 -1 -10 -43 -10 -99 0 -93 -1
-97 -23 -103 -13 -3 -24 -4 -26 -2 -1 2 0 48 3 102 l6 97 -25 0 c-13 0 -82 -7
-153 -16 -115 -14 -150 -14 -136 1 3 2 68 13 144 25 77 11 167 24 200 29 86
12 85 12 85 -4z m1997 -27 c-3 -8 -6 -5 -6 6 -1 11 2 17 5 13 3 -3 4 -12 1
-19z m-100 -10 c-3 -8 -6 -5 -6 6 -1 11 2 17 5 13 3 -3 4 -12 1 -19z m-65 -40
c2 -21 0 -38 -4 -38 -4 0 -8 21 -7 48 1 52 6 48 11 -10z m48 26 c0 -14 4 -23
10 -19 6 3 10 1 10 -4 0 -6 -4 -11 -10 -11 -5 0 -10 -7 -10 -15 0 -8 -3 -15
-7 -15 -5 0 -8 20 -8 45 0 25 3 45 8 45 4 0 7 -12 7 -26z m48 1 c-3 -3 -9 2
-12 12 -6 14 -5 15 5 6 7 -7 10 -15 7 -18z m-193 5 c3 -5 1 -10 -4 -10 -6 0
-11 5 -11 10 0 6 2 10 4 10 3 0 8 -4 11 -10z m42 -22 c-3 -7 -5 -2 -5 12 0 14
2 19 5 13 2 -7 2 -19 0 -25z m223 -4 c0 -8 -4 -12 -10 -9 -6 4 -10 -6 -10 -22
0 -15 4 -23 8 -18 8 12 42 16 42 5 0 -4 -14 -10 -31 -14 -36 -7 -124 -6 -96 1
14 4 18 11 14 29 -2 14 0 27 4 30 5 3 9 -8 9 -23 0 -22 5 -29 21 -30 18 -2 20
3 17 27 -3 21 0 30 11 33 9 3 17 5 19 6 1 0 2 -6 2 -15z m-2271 -1 c0 -5 -4
-17 -9 -28 -8 -18 -9 -17 -9 8 -1 15 4 27 9 27 6 0 10 -3 9 -7z m2301 -3 c0
-5 -2 -10 -4 -10 -3 0 -8 5 -11 10 -3 6 -1 10 4 10 6 0 11 -4 11 -10z m-277
-64 c7 4 8 3 4 -2 -5 -5 -13 -10 -18 -10 -5 -1 -10 -2 -11 -3 -12 -8 -107 -8
-102 0 3 5 11 9 17 8 7 -1 29 -1 50 0 34 1 37 3 33 25 -2 13 -1 27 2 31 4 4 8
-7 10 -24 2 -21 7 -29 15 -25z m37 50 c0 -3 -4 -8 -10 -11 -5 -3 -10 -1 -10 4
0 6 5 11 10 11 6 0 10 -2 10 -4z m-185 -16 c3 -5 1 -10 -4 -10 -6 0 -11 5 -11
10 0 6 2 10 4 10 3 0 8 -4 11 -10z m98 3 c-7 -2 -21 -2 -30 0 -10 3 -4 5 12 5
17 0 24 -2 18 -5z m-1557 -55 c3 -40 -1 -50 -18 -59 -31 -17 -41 1 -33 61 6
44 10 51 28 48 17 -2 21 -11 23 -50z m-426 7 c0 -14 -4 -25 -9 -25 -4 0 -6 11
-3 25 2 14 6 25 8 25 2 0 4 -11 4 -25z m1862 1 c10 1 20 -1 22 -5 3 -4 -14 -8
-37 -9 -23 0 -36 1 -29 4 6 3 12 13 13 22 0 15 1 15 7 1 4 -9 15 -15 24 -13z
m278 12 c0 -4 -15 -8 -32 -8 -20 0 -28 3 -21 8 16 10 53 10 53 0z m-375 -36
c-3 -3 -11 0 -18 7 -9 10 -8 11 6 5 10 -3 15 -9 12 -12z m-1765 -42 c0 -16 -4
-30 -10 -30 -11 0 -14 43 -3 53 11 12 13 8 13 -23z m1820 -150 l0 -40 -85 0
-85 0 0 -134 0 -133 -29 -6 c-65 -13 -66 -10 -63 133 l4 129 -68 3 c-71 3 -83
12 -61 42 12 17 36 20 183 28 145 7 188 11 202 17 1 0 2 -17 2 -39z m164 19
c3 -3 3 -14 0 -25 -4 -15 -15 -21 -42 -22 -20 -2 -49 -5 -64 -8 -26 -4 -28 -2
-28 32 l0 36 65 -4 c35 -2 66 -6 69 -9z m19 -29 c-3 -12 -8 -19 -11 -16 -5 6
5 36 12 36 2 0 2 -9 -1 -20z m24 -77 c-3 -10 -5 -2 -5 17 0 19 2 27 5 18 2
-10 2 -26 0 -35z m3 -104 c0 -6 -4 -7 -10 -4 -5 3 -10 11 -10 16 0 6 5 7 10 4
6 -3 10 -11 10 -16z m8 -74 c1 -41 -1 -45 -23 -45 -13 0 -27 5 -30 10 -3 6 1
10 11 10 14 0 15 2 3 17 -13 15 -12 15 9 4 26 -14 29 -4 5 15 -17 13 -17 14 0
8 13 -5 16 -2 11 10 -3 9 -2 16 4 16 5 0 10 -20 10 -45z m-498 -41 c0 -2 -7
-4 -15 -4 -8 0 -15 4 -15 10 0 5 7 7 15 4 8 -4 15 -8 15 -10z m167 0 c-3 -3
-12 -4 -19 -1 -8 3 -5 6 6 6 11 1 17 -2 13 -5z m66 -1 c-7 -2 -21 -2 -30 0
-10 3 -4 5 12 5 17 0 24 -2 18 -5z m-1690 -41 c10 -9 16 -20 14 -26 -2 -6 5
-19 16 -28 11 -10 21 -32 22 -49 2 -19 0 -27 -5 -19 -7 11 -12 10 -26 -4 -14
-15 -29 -16 -93 -11 -121 9 -161 16 -161 25 0 17 19 20 34 5 8 -8 17 -11 21
-6 3 5 1 13 -5 16 -7 4 -4 13 9 24 11 10 18 20 15 24 -3 3 11 21 31 41 33 33
40 36 73 30 20 -4 45 -14 55 -22z m1526 -111 c2 -123 10 -111 -80 -111 -26 1
-61 5 -77 9 -17 5 -33 6 -37 3 -4 -4 -52 -5 -108 -4 -122 4 -273 19 -210 21
54 1 80 11 61 22 -9 6 -3 9 17 10 29 1 30 1 5 9 -14 4 -19 8 -12 9 6 1 12 8
12 16 0 8 3 14 8 13 4 -1 18 4 30 11 13 7 25 11 26 9 2 -2 8 -28 13 -58 l10
-55 3 65 c4 98 11 123 37 125 13 1 26 4 29 7 3 3 65 7 139 7 l133 2 1 -110z
m199 101 c21 -7 13 -22 -13 -22 -27 0 -35 -26 -13 -48 9 -9 4 -12 -25 -12 -30
0 -37 -4 -37 -19 0 -14 8 -21 28 -24 22 -3 20 -4 -10 -6 -42 -1 -53 -21 -13
-21 22 0 25 -4 25 -35 0 -34 -1 -35 -40 -35 -26 0 -42 6 -48 17 -6 10 -16 14
-26 10 -14 -6 -16 6 -16 99 l0 106 88 -3 c48 -1 93 -4 100 -7z m117 -10 c-3
-3 -11 0 -18 7 -9 10 -8 11 6 5 10 -3 15 -9 12 -12z m43 -24 c-3 -7 6 -18 20
-25 34 -18 47 -16 31 4 -12 14 -12 16 0 8 11 -6 13 -4 8 8 -3 10 -2 17 3 17 6
0 10 -44 10 -106 l0 -105 -27 3 c-26 3 -28 7 -29 48 l-1 45 4 -42 c3 -35 8
-43 24 -43 10 0 19 5 19 11 0 5 -6 7 -12 3 -10 -6 -10 -4 0 8 10 12 10 18 1
23 -8 6 -7 10 2 16 11 7 9 13 -9 27 -16 13 -23 26 -20 43 2 19 -2 25 -19 27
-23 3 -34 42 -12 42 6 0 9 -6 7 -12z m729 -40 c-3 -7 -5 -2 -5 12 0 14 2 19 5
13 2 -7 2 -19 0 -25z m-370 0 c-3 -8 -6 -5 -6 6 -1 11 2 17 5 13 3 -3 4 -12 1
-19z m-37 -63 c0 -1 -24 -2 -52 -2 -46 0 -48 1 -18 6 31 6 70 4 70 -4z m87 -1
c-3 -3 -12 -4 -19 -1 -8 3 -5 6 6 6 11 1 17 -2 13 -5z m-480 -160 c-3 -3 -12
-4 -19 -1 -8 3 -5 6 6 6 11 1 17 -2 13 -5z"/>
<path d="M1698 1473 c6 -2 18 -2 25 0 6 3 1 5 -13 5 -14 0 -19 -2 -12 -5z"/>
<path d="M1400 1409 c-19 -4 -55 -11 -80 -15 -82 -12 -90 -18 -90 -69 0 -25 3
-45 8 -45 4 0 48 7 97 15 50 8 105 18 123 21 31 5 32 6 32 54 0 48 -1 50 -27
49 -16 -1 -44 -5 -63 -10z"/>
<path d="M2483 1413 c9 -2 25 -2 35 0 9 3 1 5 -18 5 -19 0 -27 -2 -17 -5z"/>
<path d="M910 1209 c0 -5 5 -7 10 -4 6 3 10 8 10 11 0 2 -4 4 -10 4 -5 0 -10
-5 -10 -11z"/>
<path d="M846 1187 c3 -10 9 -15 12 -12 3 3 0 11 -7 18 -10 9 -11 8 -5 -6z"/>
<path d="M2005 760 c-3 -5 -1 -10 4 -10 6 0 11 5 11 10 0 6 -2 10 -4 10 -3 0
-8 -4 -11 -10z"/>
<path d="M1410 670 c-41 -4 -71 -7 -66 -8 5 -1 3 -9 -4 -17 -10 -12 -10 -15 3
-15 8 0 17 4 19 8 5 13 58 24 58 12 0 -5 -5 -10 -12 -10 -6 0 -9 -2 -7 -5 3
-2 21 -1 40 4 19 5 46 12 62 15 15 4 27 10 27 14 0 9 -24 10 -120 2z"/>
<path d="M1236 655 c-28 -7 -55 -11 -62 -8 -7 2 -15 0 -19 -6 -3 -7 0 -8 9 -5
9 4 18 0 22 -10 5 -12 10 -13 26 -5 11 6 26 8 34 5 9 -3 12 -1 9 4 -3 6 5 10
19 10 31 0 56 9 56 21 0 12 -36 10 -94 -6z"/>
<path d="M805 640 c-11 -5 -38 -9 -60 -10 -22 -1 -49 -5 -60 -10 l-20 -9 20
-1 c11 -1 31 -3 44 -4 45 -5 166 11 201 27 l35 15 -70 0 c-38 1 -79 -3 -90 -8z"/>
<path d="M1640 640 c-9 -6 -10 -10 -3 -10 6 0 15 5 18 10 8 12 4 12 -15 0z"/>
<path d="M1478 593 c7 -3 16 -2 19 1 4 3 -2 6 -13 5 -11 0 -14 -3 -6 -6z"/>
<path d="M2700 260 c0 -5 5 -10 11 -10 5 0 7 5 4 10 -3 6 -8 10 -11 10 -2 0
-4 -4 -4 -10z"/>
<path d="M0 1775 c0 -28 5 -37 23 -44 42 -16 87 -23 87 -13 0 5 -15 13 -34 16
-47 9 -55 34 -13 39 l32 3 -32 8 c-18 5 -33 12 -33 17 0 5 -7 9 -15 9 -10 0
-15 -11 -15 -35z"/>
<path d="M0 1706 c0 -8 12 -17 28 -20 15 -4 35 -9 44 -12 32 -9 19 13 -16 30
-42 20 -56 20 -56 2z"/>
<path d="M1 1500 c0 -120 3 -182 11 -186 7 -5 9 4 6 27 -8 52 13 65 52 33 20
-18 38 -24 52 -21 12 4 28 1 35 -4 7 -6 18 -9 25 -7 7 3 -5 16 -29 31 -45 28
-72 58 -35 38 37 -20 72 -31 72 -22 0 4 -29 20 -65 36 -38 16 -65 33 -65 42 0
19 40 7 58 -18 12 -17 69 -36 79 -26 3 3 -12 13 -33 22 -38 16 -38 17 -16 26
13 5 28 7 33 3 5 -3 9 0 9 5 0 6 -18 18 -40 27 -49 20 -52 35 -5 27 28 -5 35
-2 35 11 0 10 5 14 11 10 7 -4 10 -1 7 7 -2 8 -29 22 -58 31 -34 11 -65 31
-85 53 -18 19 -37 35 -43 35 -7 0 -11 -61 -11 -180z m124 -138 c-6 -7 -35 18
-35 31 0 5 9 2 20 -8 11 -10 18 -20 15 -23z"/>
<path d="M110 1651 l-45 -6 32 -17 c31 -17 31 -17 47 7 9 14 15 24 14 23 -2 0
-23 -4 -48 -7z"/>
<path d="M35 1358 c8 -26 53 -67 73 -68 7 0 -4 20 -25 45 -41 49 -58 57 -48
23z"/>
<path d="M45 880 c-3 -6 1 -7 9 -4 18 7 21 14 7 14 -6 0 -13 -4 -16 -10z"/>
<path d="M82 810 c7 -11 19 -20 25 -20 11 0 11 4 1 20 -7 11 -19 20 -25 20
-11 0 -11 -4 -1 -20z"/>
<path d="M88 773 c-19 -5 -25 -23 -9 -23 17 0 41 12 41 21 0 9 -4 10 -32 2z"/>
</g>
</svg>
